<svg width="134" height="134" viewBox="0 0 134 134" fill="none" xmlns="http://www.w3.org/2000/svg">
<path d="M67 103.85C88.3796 103.85 105.711 86.5185 105.711 65.1389C105.711 43.7593 88.3796 26.4278 67 26.4278C45.6204 26.4278 28.2889 43.7593 28.2889 65.1389C28.2889 86.5185 45.6204 103.85 67 103.85Z" fill="#F5F5F5"/>
<path d="M43.6189 93.7187C41.1397 100.274 34.3042 109.269 27.9167 113.528C41.2519 113.528 50.6846 109.634 57.6944 99.9917" fill="#F5F5F5"/>
<path d="M48.3891 70.6029C51.3258 70.6029 53.7065 68.2223 53.7065 65.2855C53.7065 62.3488 51.3258 59.9682 48.3891 59.9682C45.4524 59.9682 43.0717 62.3488 43.0717 65.2855C43.0717 68.2223 45.4524 70.6029 48.3891 70.6029Z" fill="black"/>
<path d="M67.0002 70.6029C69.9369 70.6029 72.3176 68.2223 72.3176 65.2855C72.3176 62.3488 69.9369 59.9682 67.0002 59.9682C64.0635 59.9682 61.6828 62.3488 61.6828 65.2855C61.6828 68.2223 64.0635 70.6029 67.0002 70.6029Z" fill="black"/>
<path d="M85.6113 70.6029C88.548 70.6029 90.9287 68.2223 90.9287 65.2855C90.9287 62.3488 88.548 59.9682 85.6113 59.9682C82.6746 59.9682 80.2939 62.3488 80.2939 65.2855C80.2939 68.2223 82.6746 70.6029 85.6113 70.6029Z" fill="black"/>
<path d="M43.6189 93.7187C41.1397 100.274 34.3042 109.269 27.9167 113.528C41.2519 113.528 50.6846 109.634 57.6944 99.9917" stroke="black" stroke-width="2" stroke-miterlimit="10" stroke-linecap="round" stroke-linejoin="round"/>
<path d="M43.6189 93.7187C41.1397 100.274 34.3042 109.269 27.9167 113.528C41.2519 113.528 50.6846 109.634 57.6944 99.9917" stroke="black" stroke-width="2" stroke-miterlimit="10" stroke-linecap="round" stroke-linejoin="round"/>
<path d="M38.1172 88.6201C32.9035 82.2148 29.7778 74.0419 29.7778 65.1389C29.7778 44.5816 46.4427 27.9167 67 27.9167C87.5573 27.9167 104.222 44.5816 104.222 65.1389C104.222 85.6962 87.5573 102.361 67 102.361C66.3108 102.361 65.626 102.342 64.9459 102.305" stroke="black" stroke-width="2" stroke-miterlimit="10" stroke-linecap="round"/>
</svg>
