<svg width="134" height="134" viewBox="0 0 134 134" fill="none" xmlns="http://www.w3.org/2000/svg">
<path d="M39.0833 36.1093C42.1669 36.1093 44.6667 33.6095 44.6667 30.5259C44.6667 27.4423 42.1669 24.9426 39.0833 24.9426C35.9997 24.9426 33.5 27.4423 33.5 30.5259C33.5 33.6095 35.9997 36.1093 39.0833 36.1093Z" fill="#F5F5F5"/>
<path d="M104.207 53.4617C107.29 53.4617 109.79 50.962 109.79 47.8784C109.79 44.7948 107.29 42.295 104.207 42.295C101.123 42.295 98.6234 44.7948 98.6234 47.8784C98.6234 50.962 101.123 53.4617 104.207 53.4617Z" fill="#F5F5F5"/>
<path d="M55.8199 91.9571C58.9035 91.9571 61.4033 89.4574 61.4033 86.3738C61.4033 83.2902 58.9035 80.7904 55.8199 80.7904C52.7363 80.7904 50.2366 83.2902 50.2366 86.3738C50.2366 89.4574 52.7363 91.9571 55.8199 91.9571Z" fill="#F5F5F5"/>
<path d="M28.7292 49.3308L34.4643 44.2797L43.4612 43.9114L48.9859 49.173L50.2595 56.58L27.7752 56.5655L28.7292 49.3308Z" fill="#F5F5F5"/>
<path d="M93.9696 66.6879L99.7046 61.6368L108.702 61.2685L114.226 66.5299L115.5 73.9371L93.0155 73.9226L93.9696 66.6879Z" fill="#F5F5F5"/>
<path d="M45.5688 105.178L51.3038 100.128L60.3009 99.7593L65.8255 105.021L67.099 112.428L44.6147 112.413L45.5688 105.178Z" fill="#F5F5F5"/>
<path d="M39.0833 37.2222C42.1669 37.2222 44.6667 34.7225 44.6667 31.6389C44.6667 28.5553 42.1669 26.0556 39.0833 26.0556C35.9997 26.0556 33.5 28.5553 33.5 31.6389C33.5 34.7225 35.9997 37.2222 39.0833 37.2222Z" stroke="black" stroke-width="2" stroke-miterlimit="10"/>
<path d="M27.9167 55.8333C27.9167 55.8333 29.7778 47.8097 33.5 45.9486C37.2222 44.0875 40.9445 44.0875 44.6667 45.9486C48.3889 47.8097 50.25 55.8333 50.25 55.8333" stroke="black" stroke-width="2" stroke-miterlimit="10" stroke-linecap="round" stroke-linejoin="round"/>
<path d="M104.207 54.5747C107.29 54.5747 109.79 52.0749 109.79 48.9914C109.79 45.9078 107.29 43.408 104.207 43.408C101.123 43.408 98.6234 45.9078 98.6234 48.9914C98.6234 52.0749 101.123 54.5747 104.207 54.5747Z" stroke="black" stroke-width="2" stroke-miterlimit="10"/>
<path d="M93.0401 73.1858C93.0401 73.1858 94.9012 65.1622 98.6235 63.301C102.346 61.4399 106.068 61.4399 109.79 63.301C113.512 65.1622 115.373 73.1858 115.373 73.1858" stroke="black" stroke-width="2" stroke-miterlimit="10" stroke-linecap="round" stroke-linejoin="round"/>
<path d="M55.8199 93.0701C58.9035 93.0701 61.4033 90.5703 61.4033 87.4867C61.4033 84.4032 58.9035 81.9034 55.8199 81.9034C52.7363 81.9034 50.2366 84.4032 50.2366 87.4867C50.2366 90.5703 52.7363 93.0701 55.8199 93.0701Z" stroke="black" stroke-width="2" stroke-miterlimit="10"/>
<path d="M44.6533 111.681C44.6533 111.681 46.5144 103.658 50.2366 101.796C53.9588 99.9353 57.681 99.9353 61.4033 101.796C65.1255 103.658 66.9866 111.681 66.9866 111.681" stroke="black" stroke-width="2" stroke-miterlimit="10" stroke-linecap="round" stroke-linejoin="round"/>
<path d="M97.8051 37.4746C89.9531 28.2122 78.2326 22.3333 65.1389 22.3333C59.9849 22.3333 55.0437 23.2442 50.4674 24.9138" stroke="black" stroke-width="2" stroke-miterlimit="10" stroke-linecap="round" stroke-linejoin="round"/>
<path d="M73.3896 107.15C88.6741 104.165 101.048 93.0476 105.823 78.4859" stroke="black" stroke-width="2" stroke-miterlimit="10" stroke-linecap="round" stroke-linejoin="round"/>
<path d="M22.4949 61.3951C22.3879 62.6288 22.3333 63.8774 22.3333 65.1389C22.3333 79.9799 29.8861 93.057 41.3578 100.736" stroke="black" stroke-width="2" stroke-miterlimit="10" stroke-linecap="round" stroke-linejoin="round"/>
</svg>
