<svg width="24" height="24" viewBox="0 0 24 24" fill="none" xmlns="http://www.w3.org/2000/svg">
<path d="M19.7344 16.9217L16.8779 16.9218C16.1492 18.0563 15.178 19.0166 14.0363 19.7349H19.7344V21.8435L24 18.3286L19.7344 14.813V16.9217Z" fill="white"/>
<path d="M9.24089 19.7321C13.4874 19.7031 16.9219 16.2539 16.9219 12.0004C16.9219 7.96626 13.8322 4.65712 9.89062 4.30143V2.15662L5.67188 5.67224L9.89062 9.18716V7.14955C12.2695 7.49441 14.1094 9.52747 14.1094 12.0004C14.1094 14.714 11.9011 16.9222 9.1875 16.9222H0V19.7347H9.24408C9.24267 19.7339 9.24225 19.733 9.24089 19.7321Z" fill="white"/>
<path d="M5.75386 15.516C4.8383 14.6216 4.26562 13.3781 4.26562 12.0003C4.26562 10.3661 5.07502 8.92554 6.30487 8.0299L4.09533 6.18884C2.47889 7.60643 1.45312 9.68149 1.45312 12.0003C1.45312 13.2709 1.77938 14.4585 2.32223 15.516H5.75386Z" fill="white"/>
</svg>
