<svg width="24" height="24" viewBox="0 0 24 24" fill="none" xmlns="http://www.w3.org/2000/svg">
<path d="M20.8901 0.859864C20.8198 0.789551 20.7244 0.75 20.625 0.75H17.625C17.4179 0.75 17.25 0.917906 17.25 1.125V7.125C17.25 7.33209 17.4179 7.5 17.625 7.5H19.875V8.625H12.375V7.5H14.625C14.8321 7.5 15 7.33209 15 7.125V3.375C15 3.27557 14.9604 3.18018 14.8901 3.10986L12.6401 0.859864C12.5698 0.789551 12.4744 0.75 12.375 0.75H9.375C9.16791 0.75 9 0.917906 9 1.125V7.125C9 7.33209 9.16791 7.5 9.375 7.5H11.625V8.625H4.125V7.5H6.375C6.58209 7.5 6.75 7.33209 6.75 7.125V3.375C6.75 3.27557 6.71045 3.18018 6.64014 3.10986L4.39014 0.859864C4.31982 0.789551 4.22443 0.75 4.125 0.75H1.125C0.917906 0.75 0.75 0.917906 0.75 1.125V7.125C0.75 7.33209 0.917906 7.5 1.125 7.5H3.375V9C3.375 9.20709 3.54291 9.375 3.75 9.375H11.625V10.5H9C8.79291 10.5 8.625 10.6679 8.625 10.875V13.875C8.625 14.0821 8.79291 14.25 9 14.25H15C15.2071 14.25 15.375 14.0821 15.375 13.875V12.75H18.375C19.4088 12.75 20.25 13.5912 20.25 14.625C20.25 15.6588 19.4088 16.5 18.375 16.5H16.6553L17.1401 16.0151L16.6099 15.4849L15.4849 16.6099C15.4116 16.6831 15.375 16.7791 15.375 16.875C15.375 16.9709 15.4116 17.0669 15.4849 17.1401L16.6099 18.2651L17.1401 17.7349L16.6553 17.25H18.375C19.8224 17.25 21 16.0724 21 14.625C21 13.1776 19.8224 12 18.375 12H15.375V10.875C15.375 10.6679 15.2071 10.5 15 10.5H12.375V9.375H20.25C20.4571 9.375 20.625 9.20709 20.625 9V7.5H22.875C23.0821 7.5 23.25 7.33209 23.25 7.125V3.375C23.25 3.27557 23.2104 3.18018 23.1401 3.10986L20.8901 0.859864ZM9.75 1.5H12.2197L13.7197 3H12.75V2.25H12V3.375C12 3.58209 12.1679 3.75 12.375 3.75H14.25V6.75H9.75V1.5ZM1.5 1.5H3.96973L5.46973 3H4.5V2.25H3.75V3.375C3.75 3.58209 3.91791 3.75 4.125 3.75H6V6.75H1.5V1.5ZM14.625 13.5H9.375V11.25H14.625V13.5ZM18 6.75V1.5H20.4697L21.9697 3H21V2.25H20.25V3.375C20.25 3.58209 20.4179 3.75 20.625 3.75H22.5V6.75H18Z" fill="white"/>
<path d="M15 15H9C8.79291 15 8.625 15.1679 8.625 15.375V16.5H5.625C4.17755 16.5 3 17.6776 3 19.125C3 20.5724 4.17755 21.75 5.625 21.75H7.34473L6.85986 22.2349L7.39014 22.7651L8.51514 21.6401C8.58838 21.5669 8.625 21.4709 8.625 21.375C8.625 21.2791 8.58838 21.1831 8.51514 21.1099L7.39014 19.9849L6.85986 20.5151L7.34473 21H5.625C4.59118 21 3.75 20.1588 3.75 19.125C3.75 18.0912 4.59118 17.25 5.625 17.25H8.625V18.375C8.625 18.5821 8.79291 18.75 9 18.75H15C15.2071 18.75 15.375 18.5821 15.375 18.375V16.875V15.375C15.375 15.1679 15.2071 15 15 15ZM14.625 18H9.375V15.75H14.625V18Z" fill="white"/>
<path d="M9 23.25H15C15.2071 23.25 15.375 23.0821 15.375 22.875V19.875C15.375 19.6679 15.2071 19.5 15 19.5H9C8.79291 19.5 8.625 19.6679 8.625 19.875V21.375V22.875C8.625 23.0821 8.79291 23.25 9 23.25ZM9.375 20.25H14.625V22.5H9.375V20.25Z" fill="white"/>
</svg>
