<?xml version="1.0" encoding="iso-8859-1"?>
<!-- Generator: Adobe Illustrator 19.0.0, SVG Export Plug-In . SVG Version: 6.00 Build 0)  -->
<svg version="1.1" id="Capa_1" xmlns="http://www.w3.org/2000/svg" xmlns:xlink="http://www.w3.org/1999/xlink" x="0px" y="0px"
	 viewBox="0 0 468.293 468.293" style="enable-background:new 0 0 468.293 468.293;" xml:space="preserve">
<path style="fill:#2F4859;" d="M337.171,355.278H131.122c-6.868,0-12.488-5.62-12.488-12.488V204.8
	c0-6.868,5.62-12.488,12.488-12.488h206.049c6.868,0,12.488,5.62,12.488,12.488v137.99
	C349.659,349.659,344.039,355.278,337.171,355.278z"/>
<rect x="130.498" y="206.673" style="fill:#27A2DB;" width="206.673" height="118.01"/>
<path style="fill:#3A556A;" d="M455.805,299.083h-94.907c-6.868,0-12.488-5.62-12.488-12.488V100.527
	c0-6.868,5.62-12.488,12.488-12.488h94.907c6.868,0,12.488,5.62,12.488,12.488v186.068
	C468.293,293.463,462.673,299.083,455.805,299.083z"/>
<circle style="fill:#D5D6DB;" cx="408.351" cy="147.98" r="26.849"/>
<circle style="fill:#EBF0F3;" cx="408.351" cy="147.98" r="17.483"/>
<circle style="fill:#64798A;" cx="408.351" cy="147.98" r="7.493"/>
<circle style="fill:#D5D6DB;" cx="408.351" cy="229.151" r="36.839"/>
<circle style="fill:#EBF0F3;" cx="408.351" cy="229.151" r="24.351"/>
<circle style="fill:#64798A;" cx="408.351" cy="229.151" r="14.985"/>
<g>
	<path style="fill:#2F4859;" d="M379.005,307.2h-11.239c-2.498,0-4.371-1.873-4.371-4.371v-3.746h19.98v3.746
		C383.376,304.702,381.502,307.2,379.005,307.2z"/>
	<path style="fill:#2F4859;" d="M449.561,307.2h-11.239c-2.498,0-4.371-1.873-4.371-4.371v-3.746h19.98v3.746
		C453.932,304.702,452.059,307.2,449.561,307.2z"/>
</g>
<path style="fill:#3A556A;" d="M107.395,299.083H12.488C5.62,299.083,0,293.463,0,286.595V100.527
	c0-6.868,5.62-12.488,12.488-12.488h94.907c6.868,0,12.488,5.62,12.488,12.488v186.068
	C119.883,293.463,114.263,299.083,107.395,299.083z"/>
<circle style="fill:#D5D6DB;" cx="59.941" cy="147.98" r="26.849"/>
<circle style="fill:#EBF0F3;" cx="59.941" cy="147.98" r="17.483"/>
<circle style="fill:#64798A;" cx="59.941" cy="147.98" r="7.493"/>
<circle style="fill:#D5D6DB;" cx="59.941" cy="229.151" r="36.839"/>
<circle style="fill:#EBF0F3;" cx="59.941" cy="229.151" r="24.351"/>
<circle style="fill:#64798A;" cx="59.941" cy="229.151" r="14.985"/>
<g>
	<path style="fill:#2F4859;" d="M30.595,307.2H18.732c-2.498,0-4.371-1.873-4.371-4.371v-3.746h19.98v3.746
		C34.966,304.702,32.468,307.2,30.595,307.2z"/>
	<path style="fill:#2F4859;" d="M100.527,307.2H89.288c-2.498,0-4.371-1.873-4.371-4.371v-3.746h19.98v3.746
		C104.898,304.702,103.024,307.2,100.527,307.2z"/>
</g>
<circle style="fill:#D5D6DB;" cx="234.146" cy="339.668" r="9.366"/>
<path style="fill:#64798A;" d="M278.478,380.254l-8.117-7.493c-2.498-1.873-3.746-4.995-3.746-8.117v-8.741h-64.312v8.741
	c0,3.122-1.249,6.244-3.746,8.117l-8.117,7.493l0,0H278.478L278.478,380.254z"/>
<g>
</g>
<g>
</g>
<g>
</g>
<g>
</g>
<g>
</g>
<g>
</g>
<g>
</g>
<g>
</g>
<g>
</g>
<g>
</g>
<g>
</g>
<g>
</g>
<g>
</g>
<g>
</g>
<g>
</g>
</svg>
