<svg width="42" height="42" viewBox="0 0 42 42" fill="none" xmlns="http://www.w3.org/2000/svg">
<path d="M42 21C42 9.42088 32.5791 0 21 0C9.42088 0 0 9.42088 0 21C0 32.5791 9.42088 42 21 42C32.5791 42 42 32.5791 42 21ZM2.09829 21C2.09829 10.5771 10.5771 2.09829 21 2.09829C31.4229 2.09829 39.9017 10.5771 39.9017 21C39.9017 31.4229 31.4229 39.9017 21 39.9017C10.5771 39.9017 2.09829 31.4229 2.09829 21Z" fill="white"/>
<path d="M21.7451 30.8662L27.646 24.9653C28.0571 24.5542 28.0571 23.8948 27.646 23.4837C27.2349 23.0726 26.5755 23.0726 26.1644 23.4837L22.0534 27.5946V11.8789C22.0534 11.2965 21.5824 10.8254 21 10.8254C20.4176 10.8254 19.9466 11.2965 19.9466 11.8789V27.586L15.8356 23.4751C15.4246 23.064 14.7651 23.064 14.354 23.4751C13.9429 23.8862 13.9429 24.5457 14.354 24.9568L20.2549 30.8577C20.4604 31.0632 20.7259 31.166 21 31.166C21.2741 31.166 21.5396 31.0718 21.7451 30.8662Z" fill="white"/>
</svg>
