<svg width="24" height="32" viewBox="0 0 24 32" fill="none" xmlns="http://www.w3.org/2000/svg">
<g clip-path="url(#clip0)">
<path d="M6.00115 32.0004C9.31247 32.0004 11.9999 29.611 11.9999 26.6669V21.3334H6.00115C2.68983 21.3334 0.00238037 23.7228 0.00238037 26.6669C0.00238037 29.611 2.68983 32.0004 6.00115 32.0004Z" fill="#0ACF83"/>
<path d="M0.00238037 16C0.00238037 13.056 2.68983 10.6666 6.00115 10.6666H11.9999V21.3333H6.00115C2.68983 21.3333 0.00238037 18.944 0.00238037 16Z" fill="#A259FF"/>
<path d="M0.00238037 5.33333C0.00238037 2.38933 2.68983 0 6.00115 0H11.9999V10.6667H6.00115C2.68983 10.6667 0.00238037 8.27733 0.00238037 5.33333Z" fill="#F24E1E"/>
<path d="M12 0H17.9988C21.3102 0 23.9977 2.38933 23.9977 5.33333C23.9977 8.27733 21.3102 10.6667 17.9988 10.6667H12V0Z" fill="#FF7262"/>
<path d="M23.9977 16C23.9977 18.944 21.3102 21.3333 17.9988 21.3333C14.6875 21.3333 12 18.944 12 16C12 13.056 14.6875 10.6666 17.9988 10.6666C21.3102 10.6666 23.9977 13.056 23.9977 16Z" fill="#1ABCFE"/>
</g>
<defs>
<clipPath id="clip0">
<rect width="24" height="32" fill="white"/>
</clipPath>
</defs>
</svg>
