<svg width="32" height="32" viewBox="0 0 32 32" fill="none" xmlns="http://www.w3.org/2000/svg">
<g clip-path="url(#clip0)">
<path d="M9.602 11.632C8.394 11.632 7.789 12.343 7.789 13.763C7.789 15.087 8.394 15.749 9.602 15.749C10.773 15.749 11.357 15.076 11.357 13.734C11.357 13.176 11.223 12.697 10.955 12.295C10.628 11.854 10.178 11.632 9.602 11.632Z" fill="white"/>
<path d="M0 0V31.499H31.498V0H0ZM18.62 22.097H15.143V11.977C14.889 12.066 14.563 12.163 14.111 12.267C14.264 12.707 14.381 13.12 14.381 13.504C14.381 14.733 14.01 15.803 13.273 16.714C12.533 17.625 11.579 18.168 10.409 18.339C9.641 18.453 9.257 18.867 9.257 19.578C9.257 19.826 9.38 20.076 9.63 20.326C9.957 20.689 10.434 20.921 11.068 21.014C13.813 21.439 15.183 22.579 15.183 24.441C15.183 27.417 13.405 28.904 9.854 28.904C8.397 28.904 7.188 28.644 6.249 28.128C5.059 27.475 4.448 26.447 4.448 25.047C4.448 23.436 5.278 22.33 7.094 21.736V21.68C6.438 21.276 6.146 20.662 6.146 19.837C6.146 18.762 6.438 18.09 7.094 17.82V17.762C6.438 17.552 5.936 17.072 5.456 16.324C4.916 15.517 4.65 14.656 4.65 13.734C4.65 12.351 5.141 11.201 6.121 10.279C7.061 9.416 8.182 8.984 9.488 8.984C10.427 8.984 11.261 9.213 12.067 9.674C12.969 9.674 14.018 9.451 15.145 9.012V8.409H18.622V22.097H18.62ZM18.375 6.249C17.98 6.671 17.516 6.882 16.979 6.882C16.421 6.882 15.947 6.671 15.553 6.249C15.16 5.827 14.963 5.327 14.963 4.752C14.963 4.158 15.158 3.648 15.553 3.227C15.947 2.804 16.422 2.594 16.979 2.594C17.514 2.594 17.979 2.804 18.375 3.227C18.768 3.649 18.967 4.159 18.967 4.752C18.967 5.327 18.768 5.827 18.375 6.249ZM27.053 21.533C26.395 21.92 25.516 22.111 24.518 22.111C23.118 22.111 22.174 21.611 21.637 20.611C21.233 19.865 21.03 18.684 21.03 17.072V12.14H19.315V8.966H21.03V7.134H24.134C24.15 7.586 24.173 8.548 24.183 8.966H26.843V12.14H24.187V17.217C24.187 18.502 24.603 19.146 25.45 19.146C26.044 19.146 26.531 18.985 27.056 18.657V21.534H27.053V21.533Z" fill="white"/>
<path d="M7.47299 24.876C7.47299 25.871 8.31599 26.371 10.005 26.371C11.483 26.371 12.221 25.852 12.221 24.816C12.221 23.837 11.416 23.347 9.80299 23.347C8.24899 23.349 7.47199 23.857 7.47299 24.876Z" fill="white"/>
</g>
<defs>
<clipPath id="clip0">
<rect width="31.499" height="31.499" fill="white"/>
</clipPath>
</defs>
</svg>
