<svg id="Layer_1" enable-background="new 0 0 512 512" height="512" viewBox="0 0 512 512" width="512" xmlns="http://www.w3.org/2000/svg"><g><path d="m471.161 339.363c12.132-29.044 18.843-60.917 18.843-94.361 0-135.311-109.691-245.002-245.002-245.002-62.238 0-119.044 23.219-162.26 61.452l-30.587 277.911z" fill="#5c45bf"/><path d="m48.965 368.344-2.261 20.546c44.535 61.269 116.758 101.114 198.298 101.114 90.334 0 169.238-48.897 211.72-121.66z" fill="#fb7ac0"/><path d="m292.031 111.711c-21.742-1.049-43.181-5.748-63.556-12.562l-211.125 55.214c-.757 1.9-1.507 3.804-2.218 5.728h452.888c0-39.076-73.368-43.428-175.989-48.38z" fill="#b53921"/><path d="m239.53 160.091h228.49c0-39.076-73.368-43.428-175.988-48.38-21.742-1.049-43.181-5.748-63.556-12.562l-65.561 17.146c13.882 5.788 37.832 14.991 58.423 18.955 25.909 4.989 28.995 17.576 18.192 24.841z" fill="#9b2a1b"/><g><path d="m398.684 159.634h22.894l-58.085-118.169c-2.503-5.092-8.659-7.191-13.751-4.688s-7.191 8.66-4.688 13.751z" fill="#e9efff"/></g><path d="m402.594 121.013c-.035 9.545-10.936 14.775-18.41 9.123l14.5 29.498h22.894z" fill="#a8b7ef"/><path d="m488.639 497.606c-38.108-12.66-16.216-110.869-16.216-110.869h-24.773c-14.617 95.706 22.05 119.243 41.326 125.022 1.616.069 2.543.004 2.543.004z" fill="#cc4432"/><path d="m488.639 497.606c-38.108-12.66-16.216-110.869-16.216-110.869h-24.773c-14.617 95.706 22.05 119.243 41.326 125.022 1.616.069 2.543.004 2.543.004z" fill="#cc4432"/><path d="m488.639 497.606c-17.483-5.808-22.336-29.621-22.468-53.697-.032-5.802-4.732-10.492-10.534-10.492-6.237 0-11.12 5.395-10.491 11.601 4.856 47.918 29.29 62.382 43.83 66.741 1.616.069 2.543.004 2.543.004z" fill="#e85d52"/><path d="m448.65 386.736h-17.002c-11.273 119.324 48.328 124.949 58.425 125.052-19.25-5.73-56.064-29.186-41.423-125.052z" fill="#b53921"/><ellipse cx="488.341" cy="491.866" fill="#cc4432" rx="20.13" ry="20.13" transform="matrix(.994 -.11 .11 .994 -51.269 56.86)"/><path d="m502.579 486.545c-1.108-5.447-6.422-8.965-11.869-7.856-5.447 1.108-8.965 6.422-7.857 11.869s6.422 8.965 11.869 7.857c5.448-1.109 8.965-6.423 7.857-11.87z" fill="#e85d52"/><path d="m448.743 33.74c-18.537-26.726-86.683-13.067-178.628 6.298-25.28 5.324-51.451 5.58-76.626 2.896-12.168-1.298-24.516-1.394-36.79-.431-22.418 12.178-94.054 55.936-21.031 82.703l309.023-80.816c4.649-1.217 6.79-6.702 4.052-10.65z" fill="#e85d52"/><path d="m497.727 337.922h-479.468c4.676 11.393 10.174 22.361 16.44 32.819h467.028v-33.627c-1.229.52-2.581.808-4 .808z" fill="#cc4432"/><g><path d="m121.751 363.77v-18.92c0-3.606 2.732-6.559 6.228-6.928h-109.72c4.676 11.393 10.174 22.361 16.44 32.819h94.023c-3.85 0-6.971-3.121-6.971-6.971z" fill="#b53921"/></g><path d="m.074 239.028h467.946v-64.308h-457.776c-6.112 20.444-9.636 42.004-10.17 64.308z" fill="#b53921"/><path d="m131.525 229.51v-45.272c0-5.257 4.262-9.518 9.518-9.518h-130.799c-6.112 20.444-9.636 42.005-10.17 64.308h140.969c-5.256 0-9.518-4.261-9.518-9.518z" fill="#9b2a1b"/><path d="m465.559 157.579h-333.478c-5.674 0-10.273 4.599-10.273 10.273s4.599 10.273 10.273 10.273h333.478c5.674 0 10.273-4.599 10.273-10.273 0-5.673-4.599-10.273-10.273-10.273z" fill="#e85d52"/><path d="m462.353 320.403h39.374l-33.707-65.23h-34.641z" fill="#cc4432"/><path d="m7.435 305.091 22.173-49.918h-29.382c.701 17.153 3.158 33.852 7.209 49.918z" fill="#d3dcfb"/><path d="m434.787 255.173h-34.846l24.012 65.23h39.808z" fill="#e9efff"/><path d="m6.822 302.58c1.453 6.031 3.129 11.975 5.019 17.823h26.872l24.012-65.23h-34.845z" fill="#a8b7ef"/><path d="m62.725 255.173-24.012 65.23h43.661l18.569-65.23z" fill="#d3dcfb"/><path d="m361.724 255.173 18.569 65.23h43.66l-24.012-65.23z" fill="#d3dcfb"/><path d="m100.943 255.173-18.569 65.23h42.78l13.236-65.23z" fill="#a8b7ef"/><path d="m324.276 255.173 13.237 65.23h42.78l-18.569-65.23z" fill="#e9efff"/><path d="m138.39 255.173-13.236 65.23h44.641l7.672-65.23z" fill="#d3dcfb"/><path d="m285.2 255.173 7.671 65.23h44.642l-13.237-65.23z" fill="#d3dcfb"/><path d="m249.555 255.173 2.595 65.23h40.721l-7.671-65.23z" fill="#e9efff"/><path d="m177.467 255.173-7.672 65.23h40.722l2.595-65.23z" fill="#e9efff"/><path d="m213.112 255.173-2.595 65.23h41.633l-2.595-65.23z" fill="#d3dcfb"/><path d="m501.727 319.376h-381.976c-5.674 0-10.273 4.599-10.273 10.273s4.599 10.273 10.273 10.273h381.976c5.674 0 10.273-4.599 10.273-10.273s-4.599-10.273-10.273-10.273z" fill="#e85d52"/><path d="m501.727 368.344h-381.976c-5.674 0-10.273 4.599-10.273 10.273s4.599 10.273 10.273 10.273h381.976c5.674 0 10.273-4.599 10.273-10.273 0-5.673-4.599-10.273-10.273-10.273z" fill="#e85d52"/><path d="m111.477 329.649c0-5.674 4.599-10.273 10.273-10.273h-110.242c2.224 6.989 4.745 13.845 7.564 20.546h102.679c-5.674 0-10.274-4.599-10.274-10.273z" fill="#cc4432"/><path d="m111.477 378.617c0-5.674 4.599-10.273 10.273-10.273h-88.468c4.136 7.084 8.618 13.938 13.422 20.546h75.047c-5.674 0-10.274-4.599-10.274-10.273z" fill="#cc4432"/><path d="m512 329.649c0-5.674-4.599-10.273-10.273-10.273h-72.523c-5.674 0-10.273 4.599-10.273 10.273s4.599 10.273 10.273 10.273h72.523c5.674 0 10.273-4.599 10.273-10.273z" fill="#f96d67"/><path d="m512 378.617c0-5.674-4.599-10.273-10.273-10.273h-72.523c-5.674 0-10.273 4.599-10.273 10.273s4.599 10.273 10.273 10.273h72.523c5.674 0 10.273-4.599 10.273-10.273z" fill="#f96d67"/><g fill="#2a428c"><path d="m365.184 290.87h12.013c1.621 0 2.792-1.551 2.348-3.11l-9.277-32.587h-17.09l9.658 33.924c.299 1.05 1.257 1.773 2.348 1.773z"/><path d="m325.13 290.87h11.79c1.543 0 2.699-1.414 2.393-2.927l-6.65-32.77h-16.773l6.847 33.741c.231 1.138 1.231 1.956 2.393 1.956z"/><path d="m283.294 290.87h11.634c1.461 0 2.595-1.275 2.425-2.727l-3.878-32.97h-16.55l3.945 33.541c.144 1.23 1.186 2.156 2.424 2.156z"/><path d="m406.027 290.87h12.312c1.698 0 2.878-1.691 2.291-3.285l-11.931-32.412h-17.515l12.552 34.099c.354.96 1.268 1.598 2.291 1.598z"/><path d="m71.483 255.173h-17.515l-11.931 32.412c-.587 1.594.593 3.285 2.291 3.285h12.312c1.023 0 1.938-.638 2.291-1.598z"/><path d="m3.241 284.837c.33 2.02.685 4.031 1.064 6.034h12.273c1.023 0 1.938-.638 2.291-1.598l15.552-34.099h-17.515z"/><path d="m221.337 255.173h-16.45l-1.319 33.159c-.055 1.385 1.053 2.538 2.439 2.538h11.563c1.311 0 2.387-1.035 2.439-2.344z"/><path d="m185.742 255.173h-16.55l-3.877 32.97c-.171 1.451.963 2.727 2.425 2.727h11.634c1.238 0 2.28-.927 2.425-2.156z"/><path d="m146.776 255.173h-16.772l-6.65 32.77c-.307 1.513.849 2.927 2.393 2.927h11.79c1.161 0 2.162-.818 2.393-1.956z"/><path d="m109.488 255.173h-17.09l-9.276 32.587c-.444 1.559.727 3.11 2.348 3.11h12.013c1.091 0 2.049-.724 2.348-1.773z"/><path d="m245.096 290.87h11.563c1.386 0 2.494-1.153 2.439-2.538l-1.319-33.159h-16.45l1.327 33.353c.053 1.31 1.13 2.344 2.44 2.344z"/></g><path d="m465.559 235.655h-333.478c-5.674 0-10.273 4.599-10.273 10.273s4.599 10.273 10.273 10.273h333.478c5.674 0 10.273-4.599 10.273-10.273s-4.599-10.273-10.273-10.273z" fill="#e85d52"/><path d="m475.832 167.852c0-5.674-4.6-10.273-10.273-10.273h-79.974c-5.674 0-10.273 4.599-10.273 10.273s4.599 10.273 10.273 10.273h79.974c5.674.001 10.273-4.599 10.273-10.273z" fill="#f96d67"/><path d="m253.826 206.874c0-5.674-4.599-10.273-10.273-10.273h-79.974c-5.674 0-10.273 4.599-10.273 10.273s4.599 10.273 10.273 10.273h79.974c5.674 0 10.273-4.599 10.273-10.273z" fill="#ffdd40"/><path d="m475.832 245.928c0-5.674-4.6-10.273-10.273-10.273h-79.974c-5.674 0-10.273 4.599-10.273 10.273s4.599 10.273 10.273 10.273h79.974c5.674 0 10.273-4.6 10.273-10.273z" fill="#f96d67"/><path d="m123.808 167.852c0-5.674 4.599-10.273 10.273-10.273h-118.012c-2.565 6.712-4.843 13.566-6.819 20.546h124.831c-5.674.001-10.273-4.599-10.273-10.273z" fill="#cc4432"/><path d="m123.808 245.928c0-5.674 4.599-10.273 10.273-10.273h-133.887c-.116 3.103-.194 6.215-.194 9.347 0 3.754.098 7.486.265 11.199h133.815c-5.673 0-10.272-4.6-10.272-10.273z" fill="#cc4432"/><path d="m304.1 423.455h-226.949c43.848 41.259 102.893 66.549 167.851 66.549 36.68 0 71.47-8.075 102.71-22.522v-.415c0-23.987-19.625-43.612-43.612-43.612z" fill="#fc90ce"/><path d="m138.39 124.493c-84.109-29.757 24.523-82.385 24.524-82.385-27.888 1.361-55.612 8.309-80.172 19.341-29.036 25.684-51.936 58.145-66.212 94.913z" fill="#cc4432"/></g></svg>