<svg width="24" height="24" viewBox="0 0 24 24" fill="none" xmlns="http://www.w3.org/2000/svg">
<g clip-path="url(#clip0)">
<rect x="4" y="3" width="16" height="17" fill="white"/>
<path d="M1.51119 0.794496L3.06884 20.7218C3.09222 21.021 3.29477 21.2762 3.58091 21.3669L11.7773 23.9656C11.9222 24.0115 12.0778 24.0115 12.2228 23.9656L20.4192 21.3669C20.7053 21.2762 20.9078 21.021 20.9312 20.7218L22.4889 0.794496C22.5224 0.36607 22.1838 0 21.7541 0H2.24604C1.81634 0 1.47775 0.36607 1.51119 0.794496ZM18.4944 6.97727H8.34291L8.64927 9.80239H18.2736L17.644 17.8564L12.0001 19.6458L6.35611 17.8564L6.02719 13.6487H8.98958V15.7126L12.0792 16.5418L15.1504 15.7126L15.3887 12.4233H5.93139L5.30351 4.39035H18.6966L18.4944 6.97727Z" fill="#FC490B"/>
</g>
<defs>
<clipPath id="clip0">
<rect width="24" height="24" fill="white"/>
</clipPath>
</defs>
</svg>
