<svg width="24" height="24" viewBox="0 0 24 24" fill="none" xmlns="http://www.w3.org/2000/svg">
<g clip-path="url(#clip0)">
<path d="M11.8812 4.44665C10.7722 5.22661 9.51534 6.11063 8.84188 7.57318C7.67216 10.1248 11.2354 12.9081 11.3877 13.0254C11.4231 13.0526 11.4655 13.0662 11.5077 13.0662C11.5526 13.0662 11.5975 13.0509 11.634 13.0203C11.7047 12.9612 11.7247 12.8607 11.6823 12.7788C11.6694 12.754 10.3904 10.2696 10.4379 8.48729C10.4547 7.86653 11.3235 7.16232 12.2431 6.41677C13.0855 5.73389 14.0403 4.95994 14.599 4.05454C15.8254 2.0616 14.4623 0.101932 14.4484 0.0823384C14.3942 0.00630683 14.2943 -0.0212089 14.2089 0.0162444C14.1235 0.053932 14.0762 0.146229 14.0957 0.237495C14.0985 0.25048 14.3635 1.54639 13.6259 2.88154C13.3221 3.43326 12.6544 3.90285 11.8812 4.44665Z" fill="#DB380E"/>
<path d="M16.5534 5.3258C16.6316 5.26688 16.6546 5.15939 16.6073 5.07361C16.5599 4.98783 16.4568 4.95 16.3652 4.98478C16.1768 5.05641 11.7519 6.76205 11.7519 8.82292C11.7519 10.2436 12.3587 10.994 12.8019 11.5421C12.9757 11.7571 13.1257 11.9427 13.1752 12.1012C13.3144 12.5579 12.9846 13.3834 12.8459 13.6629C12.8059 13.7433 12.8255 13.8407 12.8935 13.8994C12.9302 13.9311 12.9761 13.9472 13.0221 13.9472C13.0612 13.9472 13.1004 13.9356 13.1344 13.912C13.2105 13.8591 14.9938 12.5982 14.674 11.0792C14.5548 10.5018 14.2711 10.0799 14.0207 9.7076C13.6329 9.1308 13.3527 8.71417 13.7777 7.94467C14.2756 7.0471 16.5306 5.34286 16.5534 5.3258Z" fill="#DB380E"/>
<path d="M5.03523 13.9799C4.95939 14.207 4.9952 14.4323 5.13869 14.6316C5.61836 15.2976 7.31744 15.6642 9.92313 15.6642C9.92327 15.6642 9.92337 15.6642 9.92346 15.6642C10.2765 15.6642 10.6493 15.6573 11.0311 15.6436C15.1971 15.4945 16.7423 14.1966 16.806 14.1414C16.8755 14.0813 16.8941 13.9812 16.8509 13.9002C16.8077 13.8192 16.7145 13.7785 16.6255 13.803C15.1583 14.2036 12.4186 14.3459 10.5183 14.3459C8.39187 14.3459 7.30896 14.1927 7.04383 14.0796C7.17986 13.8928 8.01893 13.5592 9.05866 13.3547C9.15804 13.3352 9.22634 13.2434 9.21649 13.1426C9.20665 13.0418 9.12199 12.965 9.02069 12.965C8.41122 12.965 5.35473 13.0139 5.03523 13.9799Z" fill="#73A1FB"/>
<path d="M18.9756 12.6431C18.1164 12.6431 17.3015 13.0738 17.2672 13.092C17.1878 13.1346 17.1474 13.2257 17.1692 13.3132C17.1911 13.4007 17.2697 13.4621 17.3599 13.4622C17.3781 13.4622 19.1928 13.4771 19.3571 14.5139C19.5027 15.4084 17.6402 16.8577 16.9102 17.3407C16.8313 17.3928 16.8007 17.4936 16.8373 17.5808C16.8685 17.655 16.9407 17.7014 17.0186 17.7014C17.0322 17.7014 17.046 17.7 17.0597 17.6971C17.2329 17.66 21.2975 16.7643 20.8677 14.3978C20.6056 12.9475 19.694 12.6431 18.9756 12.6431Z" fill="#73A1FB"/>
<path d="M16.1882 17.0511C16.2024 16.9753 16.1708 16.8982 16.1077 16.8539L15.1332 16.1713C15.0856 16.138 15.0256 16.1275 14.9698 16.1423C14.9596 16.1449 13.9405 16.4128 12.4608 16.5771C11.8735 16.643 11.2158 16.6777 10.5585 16.6777C9.07921 16.6777 8.11199 16.5039 7.97113 16.3764C7.95247 16.3406 7.95838 16.3244 7.96171 16.3153C7.9873 16.2441 8.12446 16.1596 8.21286 16.1261C8.31051 16.09 8.36315 15.9839 8.33277 15.8844C8.30249 15.7847 8.19979 15.726 8.09844 15.7504C7.12081 15.9863 6.64278 16.3162 6.67756 16.7309C6.73934 17.4662 8.44241 17.8436 9.88219 17.9433C10.0892 17.9575 10.3132 17.9647 10.5476 17.9647C10.5477 17.9647 10.5478 17.9647 10.548 17.9647C12.9421 17.9647 16.0113 17.2135 16.0419 17.2058C16.1169 17.1876 16.174 17.127 16.1882 17.0511Z" fill="#73A1FB"/>
<path d="M8.84075 18.6291C8.91458 18.5811 8.9473 18.4899 8.92109 18.4058C8.89499 18.3218 8.81638 18.2665 8.72806 18.2677C8.59705 18.2712 7.44607 18.3231 7.3655 19.0559C7.34112 19.2749 7.40384 19.475 7.55201 19.6506C7.96526 20.1403 9.0808 20.4314 10.9618 20.5405C11.1843 20.5538 11.4103 20.5605 11.6337 20.5605C14.025 20.5605 15.6355 19.8118 15.703 19.7799C15.7684 19.749 15.8115 19.6847 15.8154 19.6125C15.8192 19.5403 15.7832 19.4718 15.7215 19.4341L14.4898 18.6822C14.4471 18.6562 14.3959 18.6475 14.3472 18.6575C14.3394 18.6592 13.5574 18.8214 12.3772 18.9816C12.1539 19.012 11.8742 19.0274 11.5461 19.0274C10.3672 19.0274 9.05591 18.8348 8.80442 18.7086C8.80077 18.6851 8.80541 18.6552 8.84075 18.6291Z" fill="#73A1FB"/>
<path d="M10.5192 22.8212C15.9967 22.8166 18.9366 21.8425 19.5029 21.2295C19.7034 21.0126 19.7251 20.8073 19.7081 20.6732C19.666 20.3432 19.3653 20.1412 19.3313 20.1192C19.2491 20.0664 19.1387 20.0802 19.0746 20.1542C19.0106 20.2281 19.0091 20.3362 19.0733 20.4101C19.1079 20.4546 19.1278 20.529 19.0268 20.6301C18.8004 20.8415 16.5169 21.4834 12.7148 21.6762C12.194 21.7033 11.6477 21.7171 11.0912 21.7172C7.68701 21.7172 5.19564 21.2508 4.86859 20.9792C4.99464 20.798 5.87589 20.5087 6.81307 20.345C6.91868 20.3266 6.99002 20.227 6.97366 20.1211C6.9573 20.0152 6.85966 19.9423 6.75293 19.9561C6.72649 19.9598 6.63677 19.9651 6.5329 19.9715C4.98658 20.0659 3.19965 20.2763 3.10642 21.073C3.0781 21.3158 3.15024 21.5362 3.32092 21.728C3.73853 22.1973 4.93886 22.8211 10.519 22.8211C10.5191 22.8212 10.5191 22.8212 10.5192 22.8212Z" fill="#73A1FB"/>
<path d="M20.5788 21.4021C20.5014 21.3663 20.4099 21.3844 20.3521 21.4468C20.3441 21.4554 19.5206 22.3166 17.0444 22.8223C16.0965 23.0122 14.3171 23.1085 11.7557 23.1085C9.1895 23.1085 6.74763 23.0076 6.7233 23.0065C6.6213 23.0016 6.53407 23.0757 6.52019 23.1761C6.50627 23.2764 6.57096 23.371 6.66944 23.3945C6.69485 23.4005 9.25391 24 12.7529 24C14.431 24 16.0641 23.8637 17.6067 23.5948C20.483 23.0905 20.6844 21.6643 20.6915 21.6038C20.7016 21.5193 20.6561 21.4379 20.5788 21.4021Z" fill="#73A1FB"/>
</g>
<defs>
<clipPath id="clip0">
<rect width="24" height="24" fill="white"/>
</clipPath>
</defs>
</svg>
