<svg width="24" height="24" viewBox="0 0 24 24" fill="none" xmlns="http://www.w3.org/2000/svg">
<path d="M23.6 0H0.399984C0.178781 0 0 0.179203 0 0.399984V23.6C0 23.8208 0.178781 24 0.399984 24H23.6C23.8212 24 24 23.8208 24 23.6V0.399984C24 0.179203 23.8212 0 23.6 0ZM13.6 18.4C13.6 20.3848 11.9852 22 9.99998 22C8.01478 22 6.39998 20.3848 6.39998 18.4C6.39998 18.1792 6.57877 18 6.79997 18C7.02117 18 7.19995 18.1792 7.19995 18.4C7.19995 19.944 8.45634 21.2 9.99994 21.2C11.5435 21.2 12.7999 19.944 12.7999 18.4V8.79998C12.7999 8.5792 12.9787 8.4 13.1999 8.4C13.4211 8.4 13.5999 8.5792 13.5999 8.79998V18.4H13.6ZM18.4 14.8C20.3852 14.8 22 16.4152 22 18.4C22 20.3848 20.3852 22 18.4 22C16.4148 22 14.8 20.3848 14.8 18.4C14.8 18.1792 14.9788 18 15.2 18C15.4212 18 15.6 18.1792 15.6 18.4C15.6 19.944 16.8563 21.2 18.3999 21.2C19.9435 21.2 21.1999 19.944 21.1999 18.4C21.1999 16.856 19.9435 15.6 18.3999 15.6C16.4147 15.6 14.7999 13.9848 14.7999 12C14.7999 10.0152 16.4147 8.4 18.3999 8.4C20.3851 8.4 21.9999 10.0152 21.9999 12C21.9999 12.2208 21.8212 12.4 21.6 12.4C21.3787 12.4 21.2 12.2208 21.2 12C21.2 10.456 19.9436 9.20002 18.4 9.20002C16.8564 9.20002 15.6 10.456 15.6 12C15.6 13.544 16.8564 14.8 18.4 14.8Z" fill="#DFE300"/>
</svg>
