<svg id="Capa_1" enable-background="new 0 0 510 510" height="512" viewBox="0 0 510 510" width="512" xmlns="http://www.w3.org/2000/svg" xmlns:xlink="http://www.w3.org/1999/xlink"><linearGradient id="SVGID_1_" gradientUnits="userSpaceOnUse" x1="-6.355" x2="517.436" y1="255" y2="255"><stop offset="0" stop-color="#f8f6f7"/><stop offset=".1788" stop-color="#f8f6f7"/><stop offset="1" stop-color="#e7e6f5"/></linearGradient><linearGradient id="lg1"><stop offset="0" stop-color="#f8f6f7"/><stop offset="1" stop-color="#d1ceeb"/></linearGradient><linearGradient id="SVGID_2_" gradientUnits="userSpaceOnUse" x1="-37.355" x2="132.692" xlink:href="#lg1" y1="285.918" y2="285.918"/><linearGradient id="SVGID_3_" gradientUnits="userSpaceOnUse" x1="216.645" x2="577.912" xlink:href="#lg1" y1="255" y2="255"/><linearGradient id="SVGID_4_" gradientUnits="userSpaceOnUse" x1="220.645" x2="479.656" xlink:href="#lg1" y1="432.652" y2="432.652"/><linearGradient id="lg2"><stop offset="0" stop-color="#537983"/><stop offset=".593" stop-color="#554e56"/><stop offset="1" stop-color="#433f43"/></linearGradient><linearGradient id="SVGID_5_" gradientUnits="userSpaceOnUse" x1="233.469" x2="441.478" xlink:href="#lg2" y1="246.353" y2="246.353"/><linearGradient id="SVGID_6_" gradientUnits="userSpaceOnUse" x1="233.469" x2="441.478" xlink:href="#lg2" y1="284.839" y2="284.839"/><linearGradient id="SVGID_7_" gradientUnits="userSpaceOnUse" x1="233.469" x2="441.478" xlink:href="#lg2" y1="323.325" y2="323.325"/><linearGradient id="SVGID_8_" gradientTransform="matrix(1 0 0 -1 0 439.506)" gradientUnits="userSpaceOnUse" x1="28.822" x2="240.969" xlink:href="#lg2" y1="184.506" y2="184.506"/><linearGradient id="SVGID_9_" gradientUnits="userSpaceOnUse" x1="233.469" x2="441.478" xlink:href="#lg2" y1="93.671" y2="93.671"/><linearGradient id="SVGID_10_" gradientUnits="userSpaceOnUse" x1="233.469" x2="441.478" xlink:href="#lg2" y1="132.157" y2="132.157"/><linearGradient id="SVGID_11_" gradientUnits="userSpaceOnUse" x1="233.469" x2="441.478" xlink:href="#lg2" y1="170.644" y2="170.644"/><linearGradient id="SVGID_12_" gradientTransform="matrix(.866 -.5 .5 .866 -43.17 197.703)" gradientUnits="userSpaceOnUse" x1="268.917" x2="312.917" xlink:href="#lg2" y1="136.716" y2="136.716"/><linearGradient id="SVGID_13_" gradientTransform="matrix(.866 -.5 .5 .866 -43.17 197.703)" gradientUnits="userSpaceOnUse" x1="280.872" x2="324.872" xlink:href="#lg2" y1="231.039" y2="231.039"/><linearGradient id="SVGID_14_" gradientTransform="matrix(.866 -.5 .5 .866 -43.17 197.703)" gradientUnits="userSpaceOnUse" x1="213.866" x2="257.866" xlink:href="#lg2" y1="238.04" y2="238.04"/><linearGradient id="SVGID_15_" gradientTransform="matrix(.866 -.5 .5 .866 -43.17 197.703)" gradientUnits="userSpaceOnUse" x1="301.585" x2="345.585" xlink:href="#lg2" y1="330.093" y2="330.093"/><linearGradient id="SVGID_16_" gradientTransform="matrix(.866 -.5 .5 .866 -43.17 197.703)" gradientUnits="userSpaceOnUse" x1="359.663" x2="403.663" xlink:href="#lg2" y1="100.227" y2="100.227"/><linearGradient id="SVGID_17_" gradientTransform="matrix(.866 -.5 .5 .866 -43.17 197.703)" gradientUnits="userSpaceOnUse" x1="397.886" x2="441.886" xlink:href="#lg2" y1="166.736" y2="166.736"/><g><g><path d="m115.342 476.633v-443.266c0-18.428 14.939-33.367 33.367-33.367h299.102c18.428 0 33.367 14.939 33.367 33.367v338.66c0 76.2-61.772 137.973-137.973 137.973h-194.496c-18.428 0-33.367-14.939-33.367-33.367z" fill="url(#SVGID_1_)"/><path d="m150.312 240.169v-31.49l11.32-7.066c30.652-19.133 48.952-52.129 48.952-88.262 0-26.267-21.37-47.636-47.636-47.636-25.871 0-46.976 20.734-47.606 46.455v364.462c0 12.786 7.195 23.886 17.753 29.489 10.396-7.242 17.217-19.273 17.217-32.875v-54.583c23.556-2.527 46.426-12.799 64.444-30.816 16.904-16.904 26.213-39.379 26.213-63.285s-9.31-46.381-26.213-63.286c-17.527-17.527-41.635-24.561-64.444-21.107zm0-126.818c0-6.967 5.668-12.636 12.636-12.636s12.636 5.668 12.636 12.636c0 20.991-9.307 40.386-25.272 53.412zm39.695 249.747c-11.187 11.187-25.153 17.947-39.695 20.279v-16.363c13.272-.794 25.638-6.342 35.12-15.823 6.834-6.834 6.834-17.915 0-24.749s-17.914-6.834-24.749 0c-2.929 2.929-6.569 4.722-10.371 5.378v-55.922c3.636-1.066 7.446-1.618 11.341-1.618 10.711 0 20.781 4.171 28.354 11.745 21.249 21.249 21.249 55.824 0 77.073z" fill="url(#SVGID_2_)"/><path d="m447.811 0h-40.02c18.428 0 33.367 14.939 33.367 33.367v338.66c0 76.2-61.773 137.973-137.973 137.973h40.02c76.2 0 137.973-61.772 137.973-137.973v-338.66c0-18.428-14.939-33.367-33.367-33.367z" fill="url(#SVGID_3_)"/><path d="m481.178 355.303v16.724c0 76.2-61.772 137.973-137.973 137.973h-16.724v-121.322c0-18.432 14.942-33.375 33.375-33.375z" fill="url(#SVGID_4_)"/></g><g><path d="m433.978 253.853h-193.009c-4.142 0-7.5-3.358-7.5-7.5s3.358-7.5 7.5-7.5h193.009c4.143 0 7.5 3.358 7.5 7.5s-3.357 7.5-7.5 7.5z" fill="url(#SVGID_5_)"/><path d="m433.978 292.339h-193.009c-4.142 0-7.5-3.358-7.5-7.5s3.358-7.5 7.5-7.5h193.009c4.143 0 7.5 3.358 7.5 7.5s-3.357 7.5-7.5 7.5z" fill="url(#SVGID_6_)"/><path d="m433.978 330.825h-193.009c-4.142 0-7.5-3.358-7.5-7.5s3.358-7.5 7.5-7.5h193.009c4.143 0 7.5 3.358 7.5 7.5s-3.357 7.5-7.5 7.5z" fill="url(#SVGID_7_)"/></g><path d="m110.264 478.79c-22.083 0-40.048-17.965-40.048-40.048 0-9.665 7.835-17.5 17.5-17.5s17.5 7.835 17.5 17.5c0 2.783 2.265 5.048 5.048 5.048s5.047-2.265 5.047-5.048v-56.528c-19.285-4.275-37.608-13.898-52.582-28.871-18.472-18.472-29.888-40.605-33.015-64.006-2.953-22.103 1.441-45.369 12.707-67.282 10.793-20.995 27.501-38.96 48.318-51.954l24.571-15.337v-75.918c0-26.267 21.37-47.636 47.636-47.636s47.636 21.369 47.636 47.636c0 36.133-18.3 69.129-48.952 88.262l-11.32 7.066v31.49c22.809-3.455 46.917 3.58 64.444 21.107 16.904 16.904 26.213 39.379 26.213 63.286 0 23.906-9.31 46.381-26.213 63.285-18.018 18.017-40.888 28.289-64.444 30.816v54.583c.002 22.083-17.964 40.049-40.046 40.049zm40.048-146.28v16.363c14.542-2.333 28.508-9.092 39.695-20.279 21.249-21.249 21.249-55.824 0-77.073-7.573-7.574-17.643-11.745-28.354-11.745-3.895 0-7.705.551-11.341 1.618v55.922c3.801-.656 7.442-2.449 10.371-5.378 6.835-6.834 17.915-6.834 24.749 0s6.834 17.915 0 24.749c-9.482 9.48-21.848 15.028-35.12 15.823zm-35-136.489-6.038 3.769c-15.463 9.652-27.816 22.884-35.724 38.266-16.774 32.628-11.827 64.781 13.929 90.537 8.1 8.1 17.655 13.879 27.833 17.337v-23.489c-2.383-1.716-4.645-3.637-6.762-5.754-12.008-12.009-18.622-27.975-18.622-44.958s6.614-32.949 18.622-44.958c2.159-2.159 4.418-4.159 6.762-6zm47.636-129.811c-6.968 0-12.636 5.668-12.636 12.636v53.412c15.966-13.025 25.272-32.42 25.272-53.412 0-6.967-5.668-12.636-12.636-12.636z" fill="url(#SVGID_8_)"/><g><path d="m433.978 101.171h-193.009c-4.142 0-7.5-3.358-7.5-7.5s3.358-7.5 7.5-7.5h193.009c4.143 0 7.5 3.358 7.5 7.5s-3.357 7.5-7.5 7.5z" fill="url(#SVGID_9_)"/><path d="m433.978 139.657h-193.009c-4.142 0-7.5-3.358-7.5-7.5s3.358-7.5 7.5-7.5h193.009c4.143 0 7.5 3.358 7.5 7.5s-3.357 7.5-7.5 7.5z" fill="url(#SVGID_10_)"/><path d="m433.978 178.144h-193.009c-4.142 0-7.5-3.358-7.5-7.5s3.358-7.5 7.5-7.5h193.009c4.143 0 7.5 3.358 7.5 7.5s-3.357 7.5-7.5 7.5z" fill="url(#SVGID_11_)"/></g><path d="m296.183 159.644c5.04 8.729.595 20.73-9.928 26.805-10.522 6.075-23.138 3.924-28.178-4.805s-.595-20.73 9.928-26.805c10.523-6.076 23.138-3.924 28.178 4.805z" fill="url(#SVGID_12_)"/><path d="m353.698 235.352c5.04 8.729.595 20.73-9.928 26.805s-23.138 3.924-28.178-4.805-.595-20.73 9.928-26.805c10.522-6.075 23.138-3.923 28.178 4.805z" fill="url(#SVGID_13_)"/><path d="m299.169 274.918c5.04 8.729.595 20.73-9.928 26.805-10.522 6.075-23.138 3.924-28.178-4.805s-.595-20.73 9.928-26.805 23.138-3.923 28.178 4.805z" fill="url(#SVGID_14_)"/><path d="m421.162 310.779c5.04 8.729.595 20.73-9.928 26.805s-23.138 3.924-28.178-4.805-.595-20.73 9.928-26.805 23.139-3.924 28.178 4.805z" fill="url(#SVGID_15_)"/><path d="m356.526 82.671c5.04 8.729.595 20.73-9.928 26.805-10.522 6.075-23.138 3.924-28.178-4.805s-.595-20.73 9.928-26.805 23.139-3.924 28.178 4.805z" fill="url(#SVGID_16_)"/><path d="m422.883 121.157c5.04 8.729.595 20.73-9.928 26.805-10.522 6.075-23.138 3.924-28.178-4.805s-.595-20.73 9.928-26.805c10.522-6.075 23.138-3.924 28.178 4.805z" fill="url(#SVGID_17_)"/></g></svg>