<svg width="24" height="24" viewBox="0 0 24 24" fill="none" xmlns="http://www.w3.org/2000/svg">
<path d="M21.3818 0C19.9379 0 18.7636 1.17425 18.7636 2.61818C18.7636 3.06982 18.8784 3.49484 19.0804 3.86618L14.7914 8.1552C14.2001 7.69484 13.4601 7.41818 12.6545 7.41818C11.849 7.41818 11.1089 7.69484 10.5172 8.15476L7.17076 4.80829C7.32436 4.54865 7.41818 4.25018 7.41818 3.92727C7.41818 2.96465 6.63535 2.18182 5.67273 2.18182C4.71011 2.18182 3.92727 2.96465 3.92727 3.92727C3.92727 4.88989 4.71011 5.67273 5.67273 5.67273C5.99564 5.67273 6.29411 5.57891 6.55375 5.42531L9.90022 8.77178C9.44029 9.36349 9.16364 10.1036 9.16364 10.9091C9.16364 11.7146 9.44029 12.4547 9.90022 13.046L4.37411 18.5725C3.90895 18.1505 3.29411 17.8909 2.61818 17.8909C1.17425 17.8909 0 19.0652 0 20.5091C0 21.953 1.17425 23.1273 2.61818 23.1273C4.06211 23.1273 5.23636 21.953 5.23636 20.5091C5.23636 20.0575 5.1216 19.6324 4.91956 19.2611L10.5177 13.663C11.0003 14.0383 11.5824 14.2896 12.2186 14.3695V18.8029C10.9824 19.0115 10.0368 20.0867 10.0368 21.3818C10.0368 22.8257 11.2111 24 12.655 24C14.0989 24 15.2732 22.8257 15.2732 21.3818C15.2732 20.0871 14.3276 19.0119 13.0913 18.8029V14.3695C13.7276 14.2896 14.3097 14.0383 14.7923 13.663L18.1388 17.0095C17.9847 17.2695 17.8909 17.568 17.8909 17.8909C17.8909 18.8535 18.6737 19.6364 19.6364 19.6364C20.599 19.6364 21.3818 18.8535 21.3818 17.8909C21.3818 16.9283 20.599 16.1455 19.6364 16.1455C19.3135 16.1455 19.015 16.2393 18.7553 16.3929L15.4089 13.0464C15.8688 12.4547 16.1455 11.7146 16.1455 10.9091C16.1455 10.1036 15.8688 9.36349 15.4089 8.77222L19.6263 4.55476C20.0911 4.97673 20.7059 5.23636 21.3818 5.23636C22.8257 5.23636 24 4.06211 24 2.61818C24 1.17425 22.8257 0 21.3818 0ZM4.8 3.92727C4.8 3.44596 5.19142 3.05455 5.67273 3.05455C6.15404 3.05455 6.54545 3.44596 6.54545 3.92727C6.54545 4.40858 6.15404 4.8 5.67273 4.8C5.19142 4.8 4.8 4.40858 4.8 3.92727ZM2.61818 22.2545C1.65556 22.2545 0.872727 21.4717 0.872727 20.5091C0.872727 19.5465 1.65556 18.7636 2.61818 18.7636C3.5808 18.7636 4.36364 19.5465 4.36364 20.5091C4.36364 21.4717 3.5808 22.2545 2.61818 22.2545ZM14.4 21.3818C14.4 22.3444 13.6172 23.1273 12.6545 23.1273C11.6919 23.1273 10.9091 22.3444 10.9091 21.3818C10.9091 20.4192 11.6919 19.6364 12.6545 19.6364C13.6172 19.6364 14.4 20.4192 14.4 21.3818ZM12.6545 13.5273C11.2106 13.5273 10.0364 12.353 10.0364 10.9091C10.0364 9.46516 11.2106 8.29091 12.6545 8.29091C14.0985 8.29091 15.2727 9.46516 15.2727 10.9091C15.2727 12.353 14.0985 13.5273 12.6545 13.5273ZM20.5091 17.8909C20.5091 18.3722 20.1177 18.7636 19.6364 18.7636C19.1551 18.7636 18.7636 18.3722 18.7636 17.8909C18.7636 17.4096 19.1551 17.0182 19.6364 17.0182C20.1177 17.0182 20.5091 17.4096 20.5091 17.8909ZM21.3818 4.36364C20.4192 4.36364 19.6364 3.5808 19.6364 2.61818C19.6364 1.65556 20.4192 0.872727 21.3818 0.872727C22.3444 0.872727 23.1273 1.65556 23.1273 2.61818C23.1273 3.5808 22.3444 4.36364 21.3818 4.36364Z" fill="white"/>
</svg>
