<svg width="32" height="32" viewBox="0 0 32 32" fill="none" xmlns="http://www.w3.org/2000/svg">
<path d="M21.3 6C21.143 6 21 6.125 21 6.3V15H23V7.231C23 7.053 22.905 6.889 22.752 6.799L21.45 6.041C21.401 6.013 21.35 6 21.3 6Z" fill="white"/>
<path d="M15.407 25.677C15.305 25.677 15.203 25.648 15.11 25.599L14.175 25.044C14.034 24.966 14.102 24.937 14.151 24.922C14.336 24.859 14.375 24.844 14.574 24.727C14.593 24.717 14.623 24.722 14.642 24.732L15.362 25.16C15.386 25.175 15.425 25.175 15.45 25.16L18.263 23.534C18.287 23.519 18.307 23.49 18.307 23.456V20.209C18.307 20.175 18.292 20.146 18.263 20.131L15.45 18.51C15.426 18.495 15.392 18.495 15.362 18.51L12.549 20.131C12.52 20.146 12.505 20.18 12.505 20.209V23.456C12.505 23.485 12.524 23.514 12.549 23.529L13.318 23.972C13.737 24.181 13.995 23.933 13.995 23.69V20.482C13.995 20.438 14.029 20.399 14.078 20.399H14.433C14.477 20.399 14.516 20.433 14.516 20.482V23.69C14.516 24.25 14.214 24.566 13.684 24.566C13.523 24.566 13.392 24.566 13.037 24.391L12.297 23.968C12.117 23.862 12 23.667 12 23.458V20.211C12 20.002 12.112 19.802 12.297 19.7L15.11 18.074C15.29 17.972 15.524 17.972 15.699 18.074L18.512 19.7C18.692 19.807 18.809 20.002 18.809 20.211V23.458C18.809 23.667 18.697 23.867 18.512 23.969L15.699 25.595C15.617 25.648 15.514 25.677 15.407 25.677ZM17.68 22.474C17.68 21.866 17.271 21.705 16.405 21.588C15.529 21.471 15.441 21.413 15.441 21.208C15.441 21.038 15.514 20.814 16.161 20.814C16.74 20.814 16.954 20.941 17.042 21.33C17.052 21.369 17.081 21.393 17.12 21.393H17.485C17.509 21.393 17.529 21.383 17.543 21.369C17.558 21.35 17.567 21.33 17.562 21.306C17.504 20.634 17.061 20.323 16.16 20.323C15.357 20.323 14.88 20.664 14.88 21.228C14.88 21.846 15.357 22.012 16.126 22.09C17.046 22.182 17.119 22.314 17.119 22.494C17.119 22.81 16.866 22.942 16.272 22.942C15.527 22.942 15.362 22.757 15.308 22.387C15.303 22.348 15.269 22.319 15.225 22.319H14.86C14.816 22.319 14.777 22.353 14.777 22.402C14.777 22.874 15.035 23.439 16.266 23.439C17.169 23.438 17.68 23.088 17.68 22.474ZM20.333 20.036C20.333 20.333 20.09 20.576 19.793 20.576C19.496 20.576 19.253 20.333 19.253 20.036C19.253 19.729 19.506 19.496 19.793 19.496C20.085 19.491 20.333 19.729 20.333 20.036ZM20.246 20.036C20.246 19.783 20.042 19.583 19.788 19.583C19.54 19.583 19.335 19.783 19.335 20.036C19.335 20.289 19.539 20.494 19.788 20.494C20.041 20.488 20.246 20.284 20.246 20.036ZM20.026 20.337H19.9C19.895 20.308 19.876 20.152 19.876 20.147C19.866 20.113 19.857 20.093 19.813 20.093H19.706V20.336H19.589V19.728H19.798C19.871 19.728 20.012 19.728 20.012 19.889C20.012 20.001 19.939 20.025 19.895 20.04C19.978 20.045 19.983 20.098 19.997 20.176C20.002 20.226 20.012 20.308 20.026 20.337ZM19.89 19.909C19.89 19.826 19.832 19.826 19.802 19.826H19.705V19.996H19.797C19.876 19.997 19.89 19.943 19.89 19.909ZM14.94 16.711L14.921 16.677V16.721L14.94 16.711Z" fill="white"/>
<path d="M6.749 12.817L3.754 11.072C3.676 11.026 3.588 11.003 3.5 11.003C3.412 11.003 3.324 11.026 3.246 11.072L0.251 12.817C0.095 12.908 0 13.074 0 13.254V17.717C0 17.935 0.236 18.07 0.424 17.961L1.752 17.188C1.905 17.098 2 16.933 2 16.755V14.113L3.5 13.239L5 14.113V16.755C5 16.933 5.095 17.097 5.248 17.187L6.576 17.96C6.764 18.07 7 17.935 7 17.717V13.254C7 13.074 6.905 12.908 6.749 12.817Z" fill="white"/>
<path d="M8 13.251V16.748C8 16.928 8.095 17.094 8.251 17.184L11.246 18.929C11.403 19.02 11.597 19.02 11.754 18.929L14.749 17.184C14.905 17.094 15 16.928 15 16.749V13.252C15 13.072 14.905 12.906 14.749 12.816L11.754 11.071C11.597 10.98 11.403 10.98 11.246 11.071L8.251 12.816C8.095 12.906 8 13.072 8 13.251Z" fill="white"/>
<path d="M19.5 13.237L21 14.111V15.889L19.5 16.763L18 15.889V14.111L19.5 13.237ZM19.5 11.002C19.412 11.002 19.324 11.025 19.246 11.071L16.251 12.816C16.095 12.906 16 13.072 16 13.251V16.748C16 16.928 16.095 17.094 16.251 17.184L19.246 18.929C19.324 18.975 19.412 18.998 19.5 18.998C19.588 18.998 19.676 18.975 19.754 18.929L22.749 17.184C22.905 17.094 23 16.928 23 16.749V13.252C23 13.072 22.904 12.906 22.749 12.816L19.754 11.071C19.676 11.025 19.588 11.002 19.5 11.002Z" fill="white"/>
<path d="M29.094 17.726L26 15.905V14.11L27.5 13.236L29 14.11C29 14.11 29 15.048 29 15.36C29 15.527 29.141 15.552 29.235 15.496C29.613 15.274 30.752 14.613 30.752 14.613C30.905 14.524 31 14.36 31 14.182V13.252C31 13.072 30.905 12.906 30.749 12.816L27.754 11.071C27.675 11.025 27.588 11.002 27.5 11.002C27.412 11.002 27.324 11.025 27.246 11.071L24.251 12.816C24.095 12.906 24 13.072 24 13.251V16.748C24 16.928 24.095 17.094 24.251 17.184L27.156 18.94C27.312 19.035 27.508 19.036 27.666 18.944L29.094 18.113C29.242 18.028 29.243 17.813 29.094 17.726Z" fill="white"/>
<path d="M26.643 14.503V15.501L27.5 16L28.357 15.501V14.503L27.5 14.004L26.643 14.503Z" fill="white"/>
</svg>
