<svg width="24" height="24" viewBox="0 0 24 24" fill="none" xmlns="http://www.w3.org/2000/svg">
<path d="M1 1.02563H23V22.9744H1V1.02563Z" fill="#001D26"/>
<path d="M0 0V24H24V0H0ZM1 1.02564H23V22.9744H1V1.02564ZM5.8 5.62051C5.8 5.54872 5.94 5.49744 6.02 5.49744C6.66 5.46667 7.61 5.44615 8.6 5.44615C11.37 5.44615 12.45 7.00513 12.45 9.00513C12.45 11.6103 10.61 12.7282 8.35 12.7282C7.97 12.7282 7.84 12.7077 7.57 12.7077V16.6462C7.57 16.7282 7.54 16.7692 7.45 16.7692H5.92C5.84 16.7692 5.8 16.7385 5.8 16.6462V5.62051ZM7.58 11.0667C7.81 11.0872 7.99 11.0872 8.39 11.0872C9.56 11.0872 10.66 10.6667 10.66 9.0359C10.66 7.73333 9.87 7.07692 8.54 7.07692C8.14 7.07692 7.76 7.09744 7.58 7.10769V11.0667ZM16.18 9.84615C15.39 9.84615 15.12 10.2564 15.12 10.5949C15.12 10.9641 15.3 11.2205 16.36 11.7846C17.93 12.5641 18.42 13.3128 18.42 14.4103C18.42 16.0513 17.2 16.9333 15.55 16.9333C14.68 16.9333 13.93 16.7487 13.5 16.4923C13.43 16.4615 13.42 16.4103 13.42 16.3282V14.8205C13.42 14.7179 13.47 14.6872 13.54 14.7385C14.17 15.159 14.89 15.3436 15.55 15.3436C16.34 15.3436 16.67 15.0051 16.67 14.5436C16.67 14.1744 16.44 13.8462 15.43 13.3128C14.01 12.6154 13.42 11.9077 13.42 10.7282C13.42 9.40513 14.43 8.30769 16.18 8.30769C17.04 8.30769 17.64 8.44103 17.97 8.59487C18.05 8.64615 18.07 8.72821 18.07 8.8V10.2051C18.07 10.2872 18.02 10.3385 17.92 10.3077C17.48 10.0205 16.83 9.84615 16.18 9.84615Z" fill="#00C8FF"/>
</svg>
