<svg width="24" height="24" viewBox="0 0 24 24" fill="none" xmlns="http://www.w3.org/2000/svg">
<path d="M24 12C24 12.7259 23.9354 13.4366 23.8119 14.1267C22.8083 19.7398 17.9016 24 12 24C7.55363 24 3.672 21.5819 1.59919 17.9888C1.09322 17.1125 0.695531 16.1667 0.423187 15.169C0.146953 14.1595 0 13.0966 0 12C0 5.37258 5.37258 0 12 0C17.47 0 22.0849 3.65977 23.5303 8.66447C23.8359 9.72342 24 10.8426 24 12Z" fill="#8F9ED1"/>
<path d="M6.10177 8.35498H1.68235L0.423096 15.169C0.695439 16.1668 1.09313 17.1126 1.5991 17.9888H2.00906L2.49689 15.3498H4.9253C7.88217 15.3498 8.67713 12.6951 8.86767 11.3912C9.05869 10.0879 8.10506 8.35498 6.10177 8.35498ZM6.74292 11.6111C6.63469 12.3502 6.08855 13.8553 4.41249 13.8553H2.77313L3.50588 9.88948H5.17463C6.80124 9.88948 6.85116 10.872 6.74292 11.6111Z" fill="#F2F2F2"/>
<path d="M23.5302 8.66454C23.1545 8.47057 22.7068 8.35498 22.1896 8.35498H17.7702L15.9897 17.9888H18.0968L18.5847 15.3498H21.0131C22.3282 15.3498 23.2157 14.8248 23.8117 14.1268C23.9352 13.4367 23.9999 12.7259 23.9999 12.0001C23.9999 10.8427 23.8358 9.7235 23.5302 8.66454ZM22.8307 11.6112C22.7225 12.3503 22.1764 13.8554 20.4998 13.8554H18.8609L19.5937 9.88953H21.2624C22.889 9.88953 22.939 10.8721 22.8307 11.6112Z" fill="#F2F2F2"/>
<path d="M14.4954 8.38687C13.6378 8.38687 12.4936 8.38687 11.9361 8.38687L12.4165 5.7876H10.3181L8.53766 15.4212H10.6361L11.6599 9.8812C12.0382 9.8812 12.5407 9.8812 13.001 9.8812C13.8912 9.8812 14.4954 10.072 14.3681 10.8986C14.241 11.7253 13.5097 15.3816 13.5097 15.3816H15.6399C15.6399 15.3816 16.4665 11.312 16.5937 10.1673C16.7209 9.02273 15.6717 8.38687 14.4954 8.38687Z" fill="#F2F2F2"/>
</svg>
