<svg height="512" viewBox="0 0 512 512" width="512" xmlns="http://www.w3.org/2000/svg"><g id="flat"><path d="m245.237 302.354-37.044-30.139a49.2 49.2 0 0 1 -17.741-31.84 49.2 49.2 0 0 1 9.818-36.354l15.183-19.7 4.329-6.117 146.409-13.424 1.206 3.563a48.484 48.484 0 0 1 -18.847 55.757 48.474 48.474 0 0 1 -30.394 8.152l-64.8-4.444 35.454 40.252z" fill="#0a9acd"/><path d="m193.442 101.748 43.2 3.723a303.177 303.177 0 0 1 95.527 25.994 70.342 70.342 0 0 1 34.017 33.311l-182.468 23.654-10.569 1.613 4.4-49.215z" fill="#e82f3e"/><path d="m115.107 156.989 8.962 6.906 23.801-3.086 47.975-51.206-18.297-1.485-23.067-20.768" fill="#0a9acd"/><path d="m288.812 268.057-43.575 34.3 24.709 20.1-20.59 13.862a25.463 25.463 0 0 0 -4.974 37.853l78.525-17.242 11.056-33.364-.675-1.076a282.6 282.6 0 0 0 -44.476-54.433z" fill="#ea9d2d"/><path d="m97.183 143.179 19.687-34.82 24.829 4.849 2.057 15.867-28.649 27.914z" fill="#fbb540"/><path d="m141.699 113.208 12.782-25.858-17.924-13.81-20.601 37.249z" fill="#c38325"/><path d="m38.111 255.64a8 8 0 0 1 -.713-15.969l414.602-22.61a8 8 0 0 1 1.449 15.939l-414.6 22.61q-.374.03-.738.03z" fill="#cbcbcb"/><path d="m438.906 250.953a8 8 0 0 1 -7.924-6.973l-4.113-31.735a8 8 0 0 1 15.867-2.057l4.114 31.736a8 8 0 0 1 -6.906 8.962 8.109 8.109 0 0 1 -1.038.067z" fill="#a8a8a8"/><path d="m41.881 369.863h448a0 0 0 0 1 0 0 32 32 0 0 1 -32 32h-384a32 32 0 0 1 -32-32 0 0 0 0 1 0 0z" fill="#fbb540" transform="matrix(.976 -.217 .217 .976 -77.547 67.052)"/><path d="m35.1 461.672a8 8 0 0 1 -1.732-15.811l452.9-100.9a8 8 0 1 1 3.478 15.617l-452.9 100.9a8.054 8.054 0 0 1 -1.746.194z" fill="#eaeae8"/><path d="m81.1 484.208a8 8 0 0 1 -1.734-15.808l39.043-8.7a8 8 0 0 1 3.479 15.617l-39.043 8.7a7.992 7.992 0 0 1 -1.745.191z" fill="#cbcbcb"/><path d="m166.991 465.071a8 8 0 0 1 -1.731-15.81l117.129-26.1a8 8 0 1 1 3.478 15.617l-117.129 26.1a7.992 7.992 0 0 1 -1.747.193z" fill="#eaeae8"/><path d="m323.163 430.278a8 8 0 0 1 -1.731-15.81l39.042-8.7a8 8 0 0 1 3.478 15.617l-39.042 8.7a7.992 7.992 0 0 1 -1.747.193z" fill="#cbcbcb"/><path d="m393.439 414.621a8 8 0 0 1 -1.731-15.81l70.277-15.658a8 8 0 0 1 3.479 15.618l-70.277 15.657a8 8 0 0 1 -1.748.193z" fill="#eaeae8"/><path d="m275.462 473.69a8 8 0 0 1 -1.732-15.81l101.511-22.616a8 8 0 0 1 3.479 15.617l-101.511 22.619a7.992 7.992 0 0 1 -1.747.19z" fill="#eaeae8"/><path d="m198.214 490.9a8 8 0 0 1 -1.732-15.81l33.8-7.53a8 8 0 0 1 3.479 15.617l-33.8 7.53a7.992 7.992 0 0 1 -1.747.193z" fill="#cbcbcb"/><g fill="#b0d2fd"><path d="m349.987 293.164a8 8 0 0 1 -1.731-15.81l54.66-12.178a8 8 0 0 1 3.479 15.617l-54.661 12.178a7.992 7.992 0 0 1 -1.747.193z"/><path d="m364.755 322.658a8 8 0 0 1 -1.732-15.81l23.426-5.219a8 8 0 0 1 3.479 15.617l-23.428 5.219a7.992 7.992 0 0 1 -1.745.193z"/><path d="m222.3 51.139a8 8 0 0 1 -1.732-15.811l85.894-19.137a8 8 0 0 1 3.478 15.618l-85.891 19.136a7.994 7.994 0 0 1 -1.749.194z"/><path d="m252.686 77.153a8 8 0 0 1 -1.732-15.81l23.426-5.219a8 8 0 1 1 3.478 15.617l-23.425 5.219a7.992 7.992 0 0 1 -1.747.193z"/><path d="m307.346 64.976a8 8 0 0 1 -1.732-15.811l46.852-10.437a8 8 0 1 1 3.478 15.617l-46.851 10.437a7.994 7.994 0 0 1 -1.747.194z"/></g><path d="m97.526 145.824-10.534-6.2a37.177 37.177 0 0 1 -18-27.255 37.174 37.174 0 0 1 24.2-39.729l41.308-14.968 2.057 15.868z" fill="#e82f3e"/><path d="m72.647 202.828-15.867 2.057-8.962-6.905-21.744 18.952 15.091 38.463 36.625-12.899z" fill="#ea9d2d"/><path d="m181.37 109.242-47.31 69.491-61.413 24.1 5.143 39.667 84.184-35.113 56.856-51.877a39.73 39.73 0 0 0 12.622-34.457 27.317 27.317 0 0 0 -10.416-18.125 27.312 27.312 0 0 0 -20.182-5.45l-.417.054a27.315 27.315 0 0 0 -19.067 11.71z" fill="#e82f3e"/><path d="m182.585 188.577 36.245-33.071-13.739 30.154z" fill="#961b20"/></g></svg>