<svg height="512" viewBox="0 0 192 192" width="512" xmlns="http://www.w3.org/2000/svg" xmlns:xlink="http://www.w3.org/1999/xlink"><linearGradient id="New_Gradient_Swatch_1" gradientUnits="userSpaceOnUse" x1="46.555" x2="145.445" y1="121.868" y2="22.978"><stop offset="0" stop-color="#34cdfa"/><stop offset="1" stop-color="#e8d9f1"/></linearGradient><g id="_27-creativity" data-name="27-creativity"><g id="Flat"><path d="m96 0a64 64 0 0 0 -32 119.427v16.573a8 8 0 0 0 8 8h48a8 8 0 0 0 8-8v-16.573a64 64 0 0 0 -32-119.427z" fill="url(#New_Gradient_Swatch_1)"/><path d="m112 56v11.719l-16 10.666-16-10.666v-11.719h-16v16a8 8 0 0 0 3.563 6.656l20.437 13.625v43.719h16v-43.719l20.438-13.625a8 8 0 0 0 3.562-6.656v-16z" fill="#ccf2fe"/><path d="m128 128h-64a8 8 0 0 0 -8 8v32a24.028 24.028 0 0 0 24 24h32a24.028 24.028 0 0 0 24-24v-32a8 8 0 0 0 -8-8z" fill="#e6f9fe"/><path d="m104 184a24.028 24.028 0 0 1 -24-24v-32h-16a8 8 0 0 0 -8 8v32a24.028 24.028 0 0 0 24 24h32a23.943 23.943 0 0 0 17.869-8z" fill="#ccf2fe"/><path d="m56 152h80v16h-80z" fill="#99e6fd"/><circle cx="120" cy="40" fill="#fff" r="8"/><g fill="#01c0f9"><path d="m176 56h16v16h-16z"/><path d="m164.686 24h22.627v16h-22.627z" transform="matrix(.707 -.707 .707 .707 28.917 133.817)"/><path d="m168 84.686h16v22.627h-16z" transform="matrix(.707 -.707 .707 .707 -16.333 152.569)"/><path d="m0 56h16v16h-16z"/><path d="m8 20.686h16v22.627h-16z" transform="matrix(.707 -.707 .707 .707 -17.941 20.686)"/><path d="m4.686 88h22.627v16h-22.627z" transform="matrix(.707 -.707 .707 .707 -63.194 39.428)"/></g></g></g></svg>