<svg width="24" height="24" viewBox="0 0 24 24" fill="none" xmlns="http://www.w3.org/2000/svg">
<g clip-path="url(#clip0)">
<path d="M23.9081 23.2109C23.4969 22.6313 22.8309 22.1504 22.1259 21.6411C21.3666 21.0937 20.5868 20.5307 20.1962 19.8764C21.6781 19.5669 23.5531 19.0058 23.6434 18.9789C23.8046 18.9306 23.931 18.8042 23.9789 18.643C24.0272 18.4818 23.991 18.307 23.8827 18.1781C23.786 18.0634 21.516 15.3998 17.852 14.0932C17.6903 13.7695 17.5101 13.3544 17.3007 12.8745C15.8251 9.48883 12.7616 2.4625 4.67918 1.51718C4.03512 1.08213 2.34716 0.00012207 1.49999 0.00012207C0.448732 0.00012207 0 0.448854 0 1.50011C0 2.01184 0.416482 2.60997 1.0957 3.54404C1.42771 4.0006 1.98341 4.76475 2 5.00011C2 5.81845 2.94922 8.46785 3.90382 9.60114C3.87649 9.65927 3.84912 9.71636 3.82226 9.77303C3.3994 10.6641 2.99998 11.5059 2.99998 13.5C2.99998 16.126 4.25777 17.5 5.49995 17.5C6.27095 17.5 6.65471 16.625 6.8393 15.6006C7.52438 16.9907 8.64351 18.8018 10.2114 19.9087C10.4375 20.0669 10.7495 20.0131 10.9086 19.7885C11.0678 19.5624 11.0141 19.2509 10.7885 19.0913C8.30217 17.3364 6.98822 13.3847 6.97505 13.3447C6.89888 13.1113 6.65963 12.9667 6.42132 13.0063C6.17865 13.0449 5.99992 13.2544 5.99992 13.4999C5.99992 14.873 5.73822 16.3359 5.49991 16.4999C4.77874 16.4999 3.99991 15.353 3.99991 13.4999C3.99991 11.7309 4.32021 11.0561 4.72549 10.2016C4.80119 10.042 4.87928 9.87789 4.95696 9.7031C5.0463 9.50144 4.99357 9.2651 4.8266 9.12105C4.05612 8.45759 2.99998 5.66414 2.99998 5.00006C2.99998 4.48833 2.5835 3.89021 1.90429 2.95614C1.57227 2.49958 1.01657 1.73542 0.999979 1.50007C0.999979 1.00005 0.999979 1.00005 1.49999 1.00005C1.90527 1.00005 3.22606 1.73294 4.21727 2.41262C4.28515 2.45903 4.36376 2.48833 4.44626 2.49709C12.0454 3.32129 14.8681 9.79586 16.3842 13.2744C16.6395 13.8603 16.8602 14.3667 17.0594 14.7368C17.1195 14.8486 17.2196 14.9331 17.3392 14.9736C19.8349 15.8193 21.6957 17.3998 22.5677 18.2485C21.7162 18.4873 20.3563 18.8506 19.4179 19.0068C19.2801 19.0298 19.1581 19.1094 19.0819 19.226C19.0053 19.3427 18.9808 19.4858 19.015 19.621C19.3221 20.8515 20.5009 21.7021 21.5404 22.4521C22.1766 22.9111 22.7772 23.3447 23.0917 23.789C23.1893 23.9267 23.3436 23.9999 23.5004 23.9999C23.6004 23.9999 23.701 23.9702 23.7889 23.9082C24.014 23.7485 24.0677 23.4365 23.9081 23.2109Z" fill="#C8C8C8"/>
<path d="M4.5 4.00009C4.5 4.27646 4.72364 4.5001 5.00001 4.5001C5.27587 4.5001 5.50003 4.72421 5.50003 5.00011C5.50003 5.27649 5.72367 5.50013 6.00004 5.50013C6.27641 5.50013 6.50005 5.27649 6.50005 5.00011C6.50005 4.17296 5.82721 3.50012 5.00006 3.50012C4.72364 3.50008 4.5 3.72371 4.5 4.00009Z" fill="#C8C8C8"/>
<path d="M23.9081 23.2109C23.4969 22.6313 22.8309 22.1504 22.1259 21.6411C21.3666 21.0937 20.5868 20.5307 20.1962 19.8764C21.6781 19.5669 23.5531 19.0058 23.6434 18.9789C23.8046 18.9306 23.931 18.8042 23.9789 18.643C24.0272 18.4818 23.991 18.307 23.8827 18.1781C23.786 18.0634 21.516 15.3998 17.852 14.0932C17.6903 13.7695 17.5101 13.3544 17.3007 12.8745C15.8251 9.48883 12.7616 2.4625 4.67918 1.51718C4.03512 1.08213 2.34716 0.00012207 1.49999 0.00012207C0.448732 0.00012207 0 0.448854 0 1.50011C0 2.01184 0.416482 2.60997 1.0957 3.54404C1.42771 4.0006 1.98341 4.76475 2 5.00011C2 5.81845 2.94922 8.46785 3.90382 9.60114C3.87649 9.65927 3.84912 9.71636 3.82226 9.77303C3.3994 10.6641 2.99998 11.5059 2.99998 13.5C2.99998 16.126 4.25777 17.5 5.49995 17.5C6.27095 17.5 6.65471 16.625 6.8393 15.6006C7.52438 16.9907 8.64351 18.8018 10.2114 19.9087C10.4375 20.0669 10.7495 20.0131 10.9086 19.7885C11.0678 19.5624 11.0141 19.2509 10.7885 19.0913C8.30217 17.3364 6.98822 13.3847 6.97505 13.3447C6.89888 13.1113 6.65963 12.9667 6.42132 13.0063C6.17865 13.0449 5.99992 13.2544 5.99992 13.4999C5.99992 14.873 5.73822 16.3359 5.49991 16.4999C4.77874 16.4999 3.99991 15.353 3.99991 13.4999C3.99991 11.7309 4.32021 11.0561 4.72549 10.2016C4.80119 10.042 4.87928 9.87789 4.95696 9.7031C5.0463 9.50144 4.99357 9.2651 4.8266 9.12105C4.05612 8.45759 2.99998 5.66414 2.99998 5.00006C2.99998 4.48833 2.5835 3.89021 1.90429 2.95614C1.57227 2.49958 1.01657 1.73542 0.999979 1.50007C0.999979 1.00005 0.999979 1.00005 1.49999 1.00005C1.90527 1.00005 3.22606 1.73294 4.21727 2.41262C4.28515 2.45903 4.36376 2.48833 4.44626 2.49709C12.0454 3.32129 14.8681 9.79586 16.3842 13.2744C16.6395 13.8603 16.8602 14.3667 17.0594 14.7368C17.1195 14.8486 17.2196 14.9331 17.3392 14.9736C19.8349 15.8193 21.6957 17.3998 22.5677 18.2485C21.7162 18.4873 20.3563 18.8506 19.4179 19.0068C19.2801 19.0298 19.1581 19.1094 19.0819 19.226C19.0053 19.3427 18.9808 19.4858 19.015 19.621C19.3221 20.8515 20.5009 21.7021 21.5404 22.4521C22.1766 22.9111 22.7772 23.3447 23.0917 23.789C23.1893 23.9267 23.3436 23.9999 23.5004 23.9999C23.6004 23.9999 23.701 23.9702 23.7889 23.9082C24.014 23.7485 24.0677 23.4365 23.9081 23.2109ZM4.49997 4.00008C4.49997 4.27646 4.72361 4.5001 4.99999 4.5001C5.27584 4.5001 5.5 4.7242 5.5 5.00011C5.5 5.27648 5.72364 5.50012 6.00001 5.50012C6.27639 5.50012 6.50002 5.27648 6.50002 5.00011C6.50002 4.17296 5.82718 3.50012 5.00003 3.50012C4.72361 3.50007 4.49997 3.72371 4.49997 4.00008Z" fill="url(#paint0_linear)"/>
</g>
<defs>
<linearGradient id="paint0_linear" x1="-2.25242" y1="5.80939" x2="26.1305" y2="19.0423" gradientUnits="userSpaceOnUse">
<stop stop-color="white" stop-opacity="0.2"/>
<stop offset="1" stop-color="white" stop-opacity="0"/>
</linearGradient>
<clipPath id="clip0">
<rect width="24" height="24" fill="white"/>
</clipPath>
</defs>
</svg>
