<svg width="48" height="48" viewBox="0 0 48 48" fill="none" xmlns="http://www.w3.org/2000/svg">
<path d="M24.072 4.072C13.026 4.072 4.072 13.026 4.072 24.072C4.072 35.118 13.026 44.072 24.072 44.072C35.118 44.072 44.072 35.118 44.072 24.072C44.072 13.026 35.118 4.072 24.072 4.072ZM35.416 15.322C34.445 15.356 33.743 14.784 33.743 13.914C33.743 13.191 34.196 12.723 34.191 12.54C34.172 11.993 33.331 11.971 33.102 11.983C29.952 12.084 29.225 16.079 28.553 19.488L28.291 20.912C30.105 21.174 31.393 20.852 32.112 20.392C33.124 19.745 31.972 19.199 31.993 18.444C32.019 17.493 32.881 17.045 33.431 17.029C34.201 17.011 34.997 17.845 34.997 18.926C34.997 20.247 32.864 22.146 29.307 22.07C28.873 22.06 28.476 22.03 28.102 21.987L27.396 25.79C26.795 28.556 25.996 32.336 23.14 35.634C20.687 38.51 18.197 38.958 17.081 38.994C14.995 39.065 13.089 37.782 13.04 36.319C12.992 34.9 14.201 33.968 15.037 33.968C16.258 33.968 16.965 34.856 16.996 35.775C17.024 36.55 16.613 36.792 16.342 36.938C16.16 37.082 15.886 37.228 15.896 37.548C15.903 37.685 16.052 37.999 16.515 37.984C17.397 37.954 18.29 37.73 18.961 37.247C20.993 35.577 21.743 32.844 22.768 27.546L22.983 26.263C23.332 24.539 23.883 22.183 24.474 20.27C23.041 19.206 22.214 17.933 20.287 17.418C18.966 17.065 18.369 17.178 17.803 17.884C17.502 18.259 17.398 18.685 17.398 19.099C17.398 20.689 20.497 23.821 20.497 25.719C20.497 25.943 20.471 26.173 20.429 26.413C20.001 28.911 16.983 30.828 13.415 29.746C10.37 28.819 9.702 26.667 10.069 25.494C10.391 24.464 11.36 24.117 12.173 24.362C13.043 24.627 13.423 25.73 13.094 26.652C13.064 26.735 13.052 26.766 12.96 26.958C12.859 27.178 12.672 27.372 12.591 27.63C12.394 28.258 13.269 28.704 13.878 28.89C15.241 29.304 16.569 28.601 16.908 27.514C17.22 26.515 16.768 25.818 16.501 25.55C16.501 25.55 13.974 22.278 13.974 20.468C13.974 20.073 14.011 19.66 14.143 19.238C14.388 18.457 14.901 17.626 15.648 17.076C17.223 15.918 18.78 15.774 20.412 16.236C22.522 16.836 23.505 18.166 24.82 19.229C25.556 17.101 26.359 15.592 27.894 13.835C29.278 12.232 31.141 11.073 33.272 10.999C35.402 10.931 36.948 11.891 37.002 13.399C37.025 14.042 36.715 15.28 35.416 15.322Z" fill="white"/>
</svg>
